<svg width="48" height="48" viewBox="0 0 48 48" fill="none" xmlns="http://www.w3.org/2000/svg">
<path d="M8.636 41.072C11.272 44 15.516 44 24 44C32.484 44 36.728 44 39.364 41.07C42 38.144 42 33.428 42 24C42 14.572 42 9.858 39.364 6.928C36.728 3.998 32.484 4 24 4C15.516 4 11.272 4 8.636 6.928C6 9.86 6 14.572 6 24C6 33.428 6 38.144 8.636 41.072Z" stroke="#1F1F1F" stroke-width="3"/>
<path d="M14 16C14 15.07 14 14.606 14.102 14.224C14.2384 13.7157 14.5061 13.2523 14.8782 12.8802C15.2503 12.5081 15.7137 12.2404 16.222 12.104C16.608 12 17.072 12 18 12H30C30.93 12 31.394 12 31.776 12.102C32.2843 12.2384 32.7477 12.5061 33.1198 12.8782C33.4919 13.2503 33.7596 13.7137 33.896 14.222C34 14.608 34 15.072 34 16C34 16.928 34 17.394 33.898 17.776C33.7616 18.2843 33.4939 18.7477 33.1218 19.1198C32.7497 19.4919 32.2863 19.7596 31.778 19.896C31.394 20 30.928 20 30 20H18C17.07 20 16.606 20 16.224 19.898C15.7157 19.7616 15.2523 19.4939 14.8802 19.1218C14.5081 18.7497 14.2404 18.2863 14.104 17.778C14 17.392 14 16.928 14 16Z" stroke="#1F1F1F" stroke-width="3"/>
<path d="M16 28C17.1046 28 18 27.1046 18 26C18 24.8954 17.1046 24 16 24C14.8954 24 14 24.8954 14 26C14 27.1046 14.8954 28 16 28Z" fill="#1F1F1F"/>
<path d="M16 36C17.1046 36 18 35.1046 18 34C18 32.8954 17.1046 32 16 32C14.8954 32 14 32.8954 14 34C14 35.1046 14.8954 36 16 36Z" fill="#1F1F1F"/>
<path d="M24 28C25.1046 28 26 27.1046 26 26C26 24.8954 25.1046 24 24 24C22.8954 24 22 24.8954 22 26C22 27.1046 22.8954 28 24 28Z" fill="#1F1F1F"/>
<path d="M24 36C25.1046 36 26 35.1046 26 34C26 32.8954 25.1046 32 24 32C22.8954 32 22 32.8954 22 34C22 35.1046 22.8954 36 24 36Z" fill="#1F1F1F"/>
<path d="M32 28C33.1046 28 34 27.1046 34 26C34 24.8954 33.1046 24 32 24C30.8954 24 30 24.8954 30 26C30 27.1046 30.8954 28 32 28Z" fill="#1F1F1F"/>
<path d="M32 36C33.1046 36 34 35.1046 34 34C34 32.8954 33.1046 32 32 32C30.8954 32 30 32.8954 30 34C30 35.1046 30.8954 36 32 36Z" fill="#1F1F1F"/>
</svg>
